<?xml version="1.0" encoding="UTF-8" standalone="no"?>
<!-- Created with Inkscape (http://www.inkscape.org/) -->

<svg
   width="30.628048mm"
   height="26.443861mm"
   viewBox="0 0 30.628048 26.443861"
   version="1.1"
   id="svg1"
   xml:space="preserve"
   xmlns="http://www.w3.org/2000/svg"
   xmlns:svg="http://www.w3.org/2000/svg"><defs
     id="defs1" /><g
     id="layer1"
     style="display:inline"
     transform="translate(-38.69537,-65.211123)"><g
       style="fill:none;stroke:#ffffff;stroke-width:2;stroke-linecap:round;stroke-linejoin:round;stroke-dasharray:16, 2;stroke-dashoffset:0;stroke-opacity:1"
       id="g1"
       transform="matrix(0.26458333,0,0,0.26458333,47.932226,70.705096)"><rect
         width="20"
         height="8"
         x="2"
         y="2"
         rx="2"
         ry="2"
         id="rect1"
         style="stroke:#ffffff;stroke-dasharray:16, 2;stroke-dashoffset:0;stroke-opacity:1" /><rect
         width="20"
         height="8"
         x="2"
         y="14"
         rx="2"
         ry="2"
         id="rect2"
         style="stroke:#ffffff;stroke-dasharray:16, 2;stroke-dashoffset:0;stroke-opacity:1" /><line
         x1="6"
         x2="6.0100002"
         y1="6"
         y2="6"
         id="line2"
         style="stroke:#ffffff;stroke-dasharray:16, 2;stroke-dashoffset:0;stroke-opacity:1" /><line
         x1="6"
         x2="6.0100002"
         y1="18"
         y2="18"
         id="line3"
         style="stroke:#ffffff;stroke-dasharray:16, 2;stroke-dashoffset:0;stroke-opacity:1" /></g><g
       style="fill:none;stroke:#ffffff;stroke-width:2;stroke-linecap:round;stroke-linejoin:round;stroke-opacity:1"
       id="g3"
       transform="matrix(0.26458333,0,0,0.26458333,48.327002,82.564359)"><ellipse
         cx="12"
         cy="5"
         rx="9"
         ry="3"
         id="ellipse1"
         style="stroke:#ffffff;stroke-opacity:1" /><path
         d="m 3,5 v 14 a 9,3 0 0 0 12,2.84"
         id="path1-5"
         style="stroke:#ffffff;stroke-opacity:1" /><path
         d="M 21,5 V 8"
         id="path2-9"
         style="stroke:#ffffff;stroke-opacity:1" /><path
         d="m 21,12 -3,5 h 4 l -3,5"
         id="path3-5"
         style="stroke:#ffffff;stroke-opacity:1" /><path
         d="m 3,12 a 9,3 0 0 0 11.59,2.87"
         id="path4"
         style="stroke:#ffffff;stroke-opacity:1" /></g><g
       style="fill:none;stroke:#ffffff;stroke-width:2;stroke-linecap:round;stroke-linejoin:round;stroke-opacity:1"
       id="g4"
       transform="matrix(0.26458333,0,0,0.26458333,60.773745,70.723674)"><path
         d="M 2,21 V 3"
         id="path1-4"
         style="stroke:#ffffff;stroke-opacity:1" /><path
         d="m 2,5 h 18 a 2,2 0 0 1 2,2 v 8 a 2,2 0 0 1 -2,2 H 2.26"
         id="path2-91"
         style="stroke:#ffffff;stroke-opacity:1" /><path
         d="m 7,17 v 3 a 1,1 0 0 0 1,1 h 5 a 1,1 0 0 0 1,-1 v -3"
         id="path3-7"
         style="stroke:#ffffff;stroke-opacity:1" /><circle
         cx="16"
         cy="11"
         r="2"
         id="circle3"
         style="stroke:#ffffff;stroke-opacity:1" /><circle
         cx="8"
         cy="11"
         r="2"
         id="circle4"
         style="stroke:#ffffff;stroke-opacity:1" /></g><g
       style="display:inline;fill:none;stroke:#ffffff;stroke-width:2;stroke-linecap:round;stroke-linejoin:round;stroke-opacity:1"
       id="g5"
       transform="matrix(0.26458333,0,0,0.26458333,60.460341,81.923762)"><rect
         width="8"
         height="8"
         x="3"
         y="3"
         rx="2"
         id="rect1-7"
         style="stroke:#ffffff;stroke-opacity:1" /><path
         d="m 7,11 v 4 a 2,2 0 0 0 2,2 h 4"
         id="path1-1"
         style="stroke:#ffffff;stroke-opacity:1" /><rect
         width="8"
         height="8"
         x="13"
         y="13"
         rx="2"
         id="rect2-8"
         style="stroke:#ffffff;stroke-opacity:1" /></g><path
       style="fill:none;fill-opacity:1;stroke:#eee6f3;stroke-width:0.43652;stroke-dasharray:0.43652, 0.43652;stroke-dashoffset:0;stroke-opacity:1"
       d="M 63.734467,82.12267 V 77.509574"
       id="path15-0-3-3-1" /><path
       style="fill:none;fill-opacity:1;stroke:#eee6f3;stroke-width:0.43652;stroke-dasharray:0.43652, 0.43652;stroke-dashoffset:0;stroke-opacity:1"
       d="m 55.080413,74.019229 h 4.613096"
       id="path15-0-3-3-8" /><path
       style="fill:none;fill-opacity:1;stroke:#eee6f3;stroke-width:0.499203;stroke-dasharray:0.499203, 0.499203;stroke-dashoffset:0;stroke-opacity:1"
       d="m 55.018443,85.900741 h 6.033084"
       id="path15-0-3-3-8-7" /><path
       style="fill:none;fill-opacity:1;stroke:#eee6f3;stroke-width:0.519511;stroke-dasharray:none;stroke-dashoffset:0;stroke-opacity:1"
       d="M 69.063664,91.613134 V 66.59196"
       id="path15-0-3-3-7" /><path
       style="fill:none;fill-opacity:1;stroke:#eee6f3;stroke-width:0.525276;stroke-dasharray:none;stroke-dashoffset:0;stroke-opacity:1"
       d="M 42.24763,91.129726 V 70.84175"
       id="path15-0-3-3-7-8" /><path
       style="fill:none;fill-opacity:1;stroke:#eee6f3;stroke-width:0.658698;stroke-dasharray:none;stroke-dashoffset:0;stroke-opacity:1"
       d="M 44.957941,66.867873 H 69.180002"
       id="path15-0-3-3-7-8-6" /><path
       style="fill:none;fill-opacity:1;stroke:#eee6f3;stroke-width:0.607843;stroke-dasharray:none;stroke-dashoffset:0;stroke-opacity:1"
       d="M 42.012516,91.351056 H 68.816322"
       id="path15-0-3-3-7-8-6-9" /><path
       style="display:inline;fill:none;fill-opacity:1;stroke:#eee6f3;stroke-width:0.43652;stroke-dasharray:0.43652, 0.43652;stroke-dashoffset:0;stroke-opacity:1"
       d="M 51.285088,81.970303 V 77.357207"
       id="path15-0-3-3" /><g
       style="fill:none;stroke:#ffffff;stroke-width:2;stroke-linecap:round;stroke-linejoin:round;stroke-opacity:1"
       id="g6"
       transform="matrix(0.26458333,0,0,0.26458333,38.426742,64.679886)"><path
         d="m 12,13 v 8"
         id="path1"
         style="stroke:#ffffff;stroke-opacity:1" /><path
         d="M 4,14.899 A 7,7 0 1 1 15.71,8 h 1.79 a 4.5,4.5 0 0 1 2.5,8.242"
         id="path2"
         style="stroke:#ffffff;stroke-opacity:1" /><path
         d="m 8,17 4,-4 4,4"
         id="path3"
         style="stroke:#ffffff;stroke-opacity:1" /></g></g></svg>
